<svg xmlns="http://www.w3.org/2000/svg" xmlns:xlink="http://www.w3.org/1999/xlink" width="398" height="736" viewBox="0 0 398 736">
  <defs>
    <clipPath id="clip-background">
      <rect width="398" height="736"/>
    </clipPath>
  </defs>
  <g id="background" clip-path="url(#clip-background)">
    <rect width="398" height="736" fill="#fff"/>
    <g id="Group_52" data-name="Group 52">
      <path id="Icon_awesome-canadian-maple-leaf" data-name="Icon awesome-canadian-maple-leaf" d="M161.887,170.365c1.111-1.211,46.73-44.759,46.73-44.759l-7.774-3.633c-4.442-2.374-3.287-5.571-2.221-8.429,1.066-3.681,8.929-32.6,8.929-32.6S186.362,85.788,181.92,87c-3.332,1.163-4.442-1.211-5.553-3.633S169.7,67.671,169.7,67.671,146.34,96.687,145.229,97.85c-4.442,3.633-8.929,0-7.818-4.844,0-4.844,12.26-62.779,12.26-62.779S136.3,38.655,131.858,41.077c-3.332,2.422-5.6,2.422-7.818-2.422C121.775,35.022,105.073,0,105.073,0S88.415,35.022,86.194,38.655c-2.221,4.844-4.442,4.844-7.818,2.422-4.442-2.422-17.813-10.851-17.813-10.851s12.26,57.935,12.26,62.779c1.111,4.844-3.332,8.477-7.818,4.844C63.895,96.638,40.53,67.671,40.53,67.671S34.977,80.9,33.867,83.317s-2.221,4.8-5.553,3.633C23.827,85.739,2.683,80.9,2.683,80.9s7.818,28.919,8.929,32.6c1.066,2.906,2.221,6.055-2.221,8.429l-7.774,3.681s45.576,43.548,46.73,44.759c2.265,2.422,4.442,3.633,2.265,10.9-2.265,7.266-4.486,17-4.486,17S88.415,188.53,92.9,187.319c3.865-.436,8.129,1.211,8.129,6.055s-2.576,54.641-2.576,54.641H111.78s-2.576-49.748-2.576-54.641,4.22-6.491,8.173-6.055c4.442,1.211,46.73,10.948,46.73,10.948s-2.221-9.737-4.442-17S159.666,172.787,161.887,170.365Z" transform="translate(364.477 185.56) rotate(-139)" fill="#00552e"/>
      <path id="Icon_awesome-canadian-maple-leaf-2" data-name="Icon awesome-canadian-maple-leaf" d="M161.887,170.365c1.111-1.211,46.73-44.759,46.73-44.759l-7.774-3.633c-4.442-2.374-3.287-5.571-2.221-8.429,1.066-3.681,8.929-32.6,8.929-32.6S186.362,85.788,181.92,87c-3.332,1.163-4.442-1.211-5.553-3.633S169.7,67.671,169.7,67.671,146.34,96.687,145.229,97.85c-4.442,3.633-8.929,0-7.818-4.844,0-4.844,12.26-62.779,12.26-62.779S136.3,38.655,131.858,41.077c-3.332,2.422-5.6,2.422-7.818-2.422C121.775,35.022,105.073,0,105.073,0S88.415,35.022,86.194,38.655c-2.221,4.844-4.442,4.844-7.818,2.422-4.442-2.422-17.813-10.851-17.813-10.851s12.26,57.935,12.26,62.779c1.111,4.844-3.332,8.477-7.818,4.844C63.895,96.638,40.53,67.671,40.53,67.671S34.977,80.9,33.867,83.317s-2.221,4.8-5.553,3.633C23.827,85.739,2.683,80.9,2.683,80.9s7.818,28.919,8.929,32.6c1.066,2.906,2.221,6.055-2.221,8.429l-7.774,3.681s45.576,43.548,46.73,44.759c2.265,2.422,4.442,3.633,2.265,10.9-2.265,7.266-4.486,17-4.486,17S88.415,188.53,92.9,187.319c3.865-.436,8.129,1.211,8.129,6.055s-2.576,54.641-2.576,54.641H111.78s-2.576-49.748-2.576-54.641,4.22-6.491,8.173-6.055c4.442,1.211,46.73,10.948,46.73,10.948s-2.221-9.737-4.442-17S159.666,172.787,161.887,170.365Z" transform="matrix(0.731, 0.682, -0.682, 0.731, 54.195, 541.624)" fill="#00552e" opacity="0.29"/>
    </g>
  </g>
</svg>
